<svg version="1.1" id="Layer_1" xmlns="http://www.w3.org/2000/svg" xmlns:xlink="http://www.w3.org/1999/xlink" x="0px" y="0px"
	 width="100%" viewBox="0 0 995 730" enable-background="new 0 0 995 730" xml:space="preserve">
<path fill="#000000" opacity="1.000000" stroke="none" 
	d="
M996.000000,31.000000 
	C996.000000,264.217987 996.000000,497.435944 996.000000,731.000000 
	C934.646179,731.000000 873.291748,731.000000 811.324219,730.588013 
	C814.489807,729.455688 818.239624,728.458679 822.052002,728.062012 
	C839.866028,726.208252 857.302307,722.691650 873.916077,715.901245 
	C892.295044,708.389099 908.580688,697.756531 920.640869,681.663025 
	C935.331848,662.058716 941.106628,639.351501 941.837524,615.331238 
	C942.147034,605.158020 941.306213,594.840698 939.874451,584.746826 
	C937.069336,564.972168 928.921631,547.407043 915.184265,532.787415 
	C904.911682,521.855042 892.116150,514.415466 877.682373,508.066620 
	C879.086426,506.998718 880.025024,506.303741 880.943665,505.583313 
	C902.899902,488.364441 914.440247,465.315735 916.717834,437.992523 
	C917.709290,426.098358 916.427368,413.844849 914.795715,401.944031 
	C912.662415,386.384064 905.476624,372.707062 895.254822,360.838531 
	C882.360840,345.867065 865.895325,336.227966 847.315247,329.980072 
	C825.172791,322.534210 802.141846,320.105133 779.052246,319.211639 
	C760.660583,318.499908 742.195984,319.669373 723.763794,320.005615 
	C723.264526,320.014740 722.762756,320.019318 722.266968,320.071442 
	C709.851440,321.377228 697.427002,322.605530 685.025452,324.032745 
	C678.081787,324.831879 671.176331,325.962646 664.324585,326.933929 
	C664.324585,459.619720 664.324585,591.652344 664.324585,723.852295 
	C675.088013,724.927368 685.547241,725.972595 696.006531,727.016418 
	C702.712646,727.685608 709.425049,728.300964 716.115845,729.098328 
	C716.809570,729.180969 717.375061,730.340210 718.000000,731.000000 
	C649.645752,731.000000 581.291565,731.000000 512.310181,730.598877 
	C512.190735,729.823547 512.668640,729.173584 513.210510,729.114990 
	C531.500610,727.135193 548.689575,721.726196 564.922058,713.050049 
	C583.291443,703.231934 597.061096,688.902161 607.031372,670.793091 
	C623.401733,641.059265 628.260620,608.285278 628.667969,575.303772 
	C629.678406,493.497131 629.000000,411.669617 629.000000,329.850494 
	C629.000000,328.054077 629.000000,326.257629 629.000000,324.551392 
	C592.475403,318.181000 561.471924,319.296112 532.000000,324.679016 
	C532.000000,326.576141 532.007812,328.548981 531.998901,330.521790 
	C531.667053,403.781891 531.366943,477.042145 530.962280,550.301880 
	C530.905579,560.574036 530.286987,570.842102 530.015259,581.114319 
	C529.678772,593.833069 527.600708,606.206055 523.049377,618.128845 
	C519.035950,628.642639 512.178833,636.183044 501.344055,640.067627 
	C489.890564,644.174133 478.108429,644.152527 466.388550,642.773926 
	C459.159882,641.923645 452.106873,639.687134 446.143890,634.754089 
	C437.749756,627.809692 433.835205,618.469604 431.014282,608.447998 
	C425.828461,590.024719 425.374512,570.952209 425.231018,552.134949 
	C424.666901,478.152100 425.000000,404.162415 425.000000,330.175262 
	C425.000000,328.222198 425.000000,326.269135 425.000000,324.434021 
	C392.347046,318.729675 360.307129,318.852905 328.000000,324.438110 
	C328.000000,326.728088 328.000000,328.711884 328.000000,330.695709 
	C328.000000,404.849487 328.047028,479.003326 327.966217,553.156982 
	C327.946564,571.203125 328.476807,589.155334 330.858337,607.105347 
	C333.986481,630.682556 339.537842,653.384827 351.610718,674.084534 
	C358.640869,686.138184 367.540955,696.677429 378.883087,704.955627 
	C397.982208,718.895386 419.597443,726.204041 442.889191,729.085083 
	C443.659973,729.180420 444.299377,730.337708 445.000000,731.000000 
	C387.645782,731.000000 330.291534,731.000000 272.318481,730.592773 
	C275.642029,729.455322 279.558746,728.508057 283.531891,728.038025 
	C292.989136,726.919312 293.000000,727.010559 293.000000,717.523743 
	C293.000031,588.743652 293.000000,459.963562 292.999847,331.183472 
	C292.999847,329.850677 292.863983,328.501556 293.024414,327.188477 
	C293.373962,324.327454 291.683716,323.265198 289.328339,323.054382 
	C273.755859,321.660431 258.182343,319.383728 242.597687,319.289703 
	C229.026993,319.207886 215.419403,321.429901 201.871307,323.005402 
	C194.957581,323.809387 195.000092,324.178131 195.000061,331.285370 
	C194.999924,376.766571 194.999985,422.247772 194.999985,467.728973 
	C194.999985,469.671967 194.999985,471.614929 194.999985,473.633301 
	C162.707870,473.633301 131.006866,473.633301 99.000008,473.633301 
	C99.000008,471.289185 99.000008,469.309814 99.000008,467.330475 
	C99.000000,421.516083 99.000168,375.701691 98.999100,329.887299 
	C98.999062,328.554596 99.340286,327.079803 98.878906,325.929352 
	C98.421959,324.789948 97.225899,323.236755 96.223137,323.133270 
	C81.661728,321.630219 67.100067,319.714966 52.492935,319.206573 
	C41.656532,318.829407 30.735912,320.138275 19.888275,321.097351 
	C13.556138,321.657196 7.293761,323.006104 0.999999,324.000000 
	C1.000000,217.830490 0.995889,111.660980 1.041523,5.491488 
	C1.042167,3.994189 1.666667,2.497157 2.500000,1.468657 
	C3.000000,23.330774 2.999999,44.724232 3.000000,66.117691 
	C3.000001,87.177963 3.000000,108.238235 2.999999,129.298508 
	C2.999998,151.191818 2.999950,173.085129 3.000012,194.978439 
	C3.000103,227.201401 3.031324,259.424469 2.950179,291.647217 
	C2.942456,294.714050 3.498463,296.589813 6.993893,297.030823 
	C23.023497,299.053192 39.037586,301.303619 55.228371,298.975494 
	C61.469303,298.078125 67.676605,296.946869 74.178192,295.876251 
	C74.178192,255.614655 74.178192,216.030945 74.178192,176.064362 
	C99.520958,176.064362 124.456284,176.064362 150.793976,176.064362 
	C151.868851,163.784286 153.490265,151.767181 153.762619,139.719574 
	C153.927216,132.438446 151.553436,125.133553 151.165161,117.794640 
	C150.901657,112.814140 148.931625,111.870552 144.451202,111.911278 
	C122.794029,112.108192 101.134079,111.999962 79.475113,111.999916 
	C77.727623,111.999908 75.980141,111.999908 74.302765,111.999908 
	C74.302765,95.609802 74.302765,80.020950 74.302765,63.875519 
	C106.660469,63.875519 138.720367,63.875519 171.275513,63.875519 
	C172.210205,51.708187 173.751755,40.063122 173.792694,28.412779 
	C173.824783,19.278570 171.999893,10.137836 171.000000,1.000000 
	C208.354233,1.000000 245.708450,1.000000 283.689911,1.400951 
	C283.808441,2.176331 283.350067,2.754950 282.783539,2.894530 
	C274.405029,4.958622 265.756470,6.244909 257.670502,9.118445 
	C233.016647,17.879759 214.547958,34.312622 201.613541,56.901859 
	C186.382355,83.502243 181.561478,112.833755 180.110916,142.883133 
	C179.713318,151.119644 180.929764,159.421005 180.935516,167.692947 
	C180.945282,181.781036 183.639862,195.437073 187.024292,208.988602 
	C193.634506,235.456299 206.016968,258.593170 227.559357,275.919403 
	C244.451935,289.505829 264.242035,296.419983 285.625793,298.965820 
	C289.609528,299.440094 293.638031,299.538239 297.991150,299.833374 
	C297.991150,280.665833 298.518829,262.002441 297.786255,243.388626 
	C297.370239,232.817871 291.682831,223.592804 283.399323,217.404572 
	C270.056274,207.436600 263.750854,193.788223 262.363525,178.310364 
	C261.268829,166.097397 262.498505,153.469269 264.276154,141.255524 
	C266.767853,124.135460 270.659821,107.215363 274.102692,90.240128 
	C275.000916,85.811333 276.454559,81.495193 277.653107,77.127312 
	C278.996277,87.866058 279.654205,98.378876 279.962952,108.901932 
	C280.435303,125.001816 280.714417,141.108078 280.949707,157.213470 
	C280.985229,159.643097 281.427521,161.987167 284.012634,161.698120 
	C285.473022,161.534821 287.649902,159.279739 287.858337,157.743576 
	C289.777130,143.603088 291.505371,129.430908 292.940430,115.232697 
	C293.918671,105.554390 294.286713,95.815491 295.070801,86.115273 
	C295.184357,84.710503 296.099945,83.370552 297.008026,81.085495 
	C297.628265,82.705124 297.909668,83.113121 297.926849,83.531952 
	C298.632751,100.740822 299.204742,117.956078 300.050018,135.157928 
	C300.429291,142.876251 301.173889,150.591171 302.185333,158.250519 
	C302.368103,159.634613 304.646790,161.696136 305.971710,161.706726 
	C307.295776,161.717300 309.674194,159.652664 309.809784,158.317017 
	C311.090454,145.699600 312.265137,133.057831 312.923981,120.394646 
	C313.604889,107.307808 313.669342,94.189110 314.042755,81.085464 
	C314.061432,80.429482 314.453674,79.784142 314.671997,79.133850 
	C315.077301,79.161888 315.482574,79.189919 315.887878,79.217957 
	C316.265259,84.533562 316.537964,89.859062 317.039246,95.162956 
	C318.648621,112.190590 320.292755,129.215347 322.040070,146.229218 
	C322.456146,150.280853 323.035889,154.367752 324.137177,158.270004 
	C324.549103,159.729614 326.662567,160.709030 328.000244,161.907410 
	C328.998718,160.376038 330.775146,158.890579 330.868713,157.305771 
	C331.454651,147.382401 331.733978,137.438583 331.984192,127.498268 
	C332.381073,111.728752 332.669159,95.956520 333.034821,80.186157 
	C333.050629,79.505783 333.382294,78.832733 333.566833,78.156273 
	C335.651520,82.811493 337.040619,87.427422 337.966553,92.134476 
	C341.089294,108.009300 344.082062,123.910027 347.058319,139.813248 
	C349.705566,153.958374 351.448181,168.170303 348.980469,182.536041 
	C346.742065,195.566666 341.420319,207.078262 330.900787,215.467148 
	C319.967926,224.185593 313.718475,234.953979 313.968414,249.213974 
	C314.134857,258.709991 314.000000,268.211243 314.000000,277.710144 
	C314.000000,285.003662 314.000000,292.297180 314.000000,300.299042 
	C322.007355,299.138702 329.454773,298.299286 336.807953,296.947083 
	C355.576294,293.495636 372.252441,285.428223 386.546356,272.843994 
	C399.060059,261.827057 408.156769,248.269440 415.061676,233.067917 
	C424.427521,212.448593 428.587646,190.582352 429.787384,168.314072 
	C431.227966,141.576675 429.650269,114.939728 422.068695,88.919128 
	C416.532074,69.916992 408.266846,52.329842 394.974579,37.685516 
	C377.276123,18.186893 355.197571,6.316409 328.832642,2.908577 
	C328.150909,2.820459 327.607788,1.660232 327.000000,0.999998 
	C400.020905,1.000000 473.041779,1.000000 546.689941,1.400954 
	C546.476929,2.197098 545.660706,2.870714 544.792786,2.945622 
	C532.219666,4.030743 520.299011,7.767545 509.264923,13.507840 
	C482.077362,27.651646 463.739197,49.728764 453.762360,78.631271 
	C443.814880,107.448830 440.658234,137.061234 442.792084,167.504303 
	C443.877045,182.982834 445.919464,198.148972 450.020111,213.057068 
	C455.631104,233.455933 465.200104,251.742950 479.759308,267.215088 
	C489.839661,277.927582 502.142029,285.502686 515.603333,291.132446 
	C528.336670,296.457794 541.770386,298.876556 555.483154,299.831299 
	C556.001892,293.137604 556.739563,286.742828 556.945984,280.330902 
	C557.432007,265.233582 557.752869,250.128784 557.873291,235.024887 
	C557.886475,233.378082 556.562622,230.869843 555.166565,230.196457 
	C543.456543,224.548111 535.588806,215.185059 530.064270,203.902252 
	C517.554871,178.354233 515.773499,151.530304 522.509644,124.186134 
	C526.654541,107.360840 533.663574,91.887871 548.310852,81.225174 
	C554.267761,76.888718 561.132568,73.851936 568.358948,74.334587 
	C581.893921,75.238617 591.702087,83.029549 599.401001,93.797958 
	C612.025513,111.455765 616.265015,131.763840 616.729065,152.787949 
	C616.954285,162.988785 615.324707,173.513657 612.760620,183.433197 
	C607.658936,203.170013 599.382141,221.160889 579.223206,230.466675 
	C578.138306,230.967484 577.091553,232.936722 577.110474,234.206284 
	C577.198914,240.147751 577.803589,246.079697 577.973083,252.022186 
	C578.389587,266.622162 578.668335,281.226074 579.001831,295.828400 
	C579.009460,296.161530 578.868408,296.661560 579.034546,296.801544 
	C580.313232,297.879150 581.528076,299.182800 583.018066,299.800201 
	C583.849243,300.144623 585.152710,299.134216 586.269653,299.036835 
	C601.465332,297.711578 615.787537,293.587402 629.278564,286.360077 
	C652.337891,274.006927 667.720642,254.921646 677.992432,231.339066 
	C686.524902,211.749557 690.499390,190.973145 691.800598,169.853165 
	C693.052795,149.528915 692.580566,129.044189 688.753662,108.979630 
	C685.262085,90.673615 680.070679,72.825714 670.329468,56.521450 
	C662.878723,44.050850 654.021606,32.906815 642.430603,24.267494 
	C626.547485,12.429047 608.807556,4.794390 588.849365,2.905119 
	C588.178833,2.841643 587.614075,1.660296 587.000000,1.000007 
	C640.354248,1.000000 693.708435,1.000000 747.666870,1.418903 
	C747.093079,2.224453 745.937500,2.846264 744.733521,2.961187 
	C733.305542,4.052054 721.869385,5.056810 710.298096,6.098719 
	C710.298096,102.241158 710.298096,197.945312 710.298096,294.251099 
	C731.149536,296.178589 751.727600,298.899475 772.381470,299.726227 
	C788.366577,300.366058 804.543823,299.504333 820.458069,297.723267 
	C837.659912,295.798065 854.397034,291.338043 870.465515,284.357910 
	C895.106445,273.653961 913.857605,256.854706 925.984741,232.890717 
	C937.247375,210.635086 940.593933,186.472794 941.871887,161.986145 
	C942.336121,153.091843 941.791138,144.075012 940.892883,135.196457 
	C939.674255,123.152351 938.472290,111.009438 935.846985,99.224373 
	C929.784485,72.009056 916.644470,48.665329 894.535034,31.152441 
	C873.425720,14.431783 848.732056,6.438981 822.351807,2.933836 
	C821.169739,2.776781 820.114380,1.666365 819.000000,1.000003 
	C859.020874,1.000000 899.041809,1.000000 939.733276,1.400157 
	C940.332214,3.139854 940.260437,4.479394 940.164612,6.268024 
	C943.840820,6.268024 946.756470,6.268024 950.186035,6.268024 
	C950.186035,14.722510 950.186035,22.767864 950.186035,30.734375 
	C951.993774,30.734375 953.261963,30.734375 955.073547,30.734375 
	C955.073547,22.464300 955.073547,14.419314 955.073547,5.850758 
	C958.676758,5.850758 961.737976,5.850758 965.000000,5.850758 
	C965.000000,3.870011 965.000000,2.435006 965.000000,1.000000 
	C965.444458,1.000000 965.888916,1.000000 966.986877,1.303734 
	C967.254456,2.863759 966.523804,4.124141 966.538635,5.375670 
	C966.634766,13.475048 966.889282,21.572613 967.114807,29.670132 
	C967.123047,29.967422 967.368164,30.258114 967.554016,30.663502 
	C968.889526,30.663502 970.262817,30.663502 972.420410,30.663502 
	C972.420410,25.306389 972.420410,20.239599 972.420410,15.172809 
	C974.955933,19.282734 976.291504,23.463793 978.094421,27.432543 
	C978.750977,28.877916 980.384277,30.426144 981.835815,30.751947 
	C982.662537,30.937504 984.478821,28.945015 985.055786,27.594278 
	C986.796509,23.519142 988.148804,19.278107 989.652588,15.101746 
	C990.056335,15.156554 990.460144,15.211363 990.863892,15.266171 
	C990.863892,20.421112 990.863892,25.576052 990.863892,31.000000 
	C993.036682,31.000000 994.518372,31.000000 996.000000,31.000000 
z"/>
<path fill="#DA2B27" opacity="1.000000" stroke="none" 
	d="
M718.468628,731.000000 
	C717.375061,730.340210 716.809570,729.180969 716.115845,729.098328 
	C709.425049,728.300964 702.712646,727.685608 696.006531,727.016418 
	C685.547241,725.972595 675.088013,724.927368 664.324585,723.852295 
	C664.324585,591.652344 664.324585,459.619720 664.324585,326.933929 
	C671.176331,325.962646 678.081787,324.831879 685.025452,324.032745 
	C697.427002,322.605530 709.851440,321.377228 722.266968,320.071442 
	C722.762756,320.019318 723.264526,320.014740 723.763794,320.005615 
	C742.195984,319.669373 760.660583,318.499908 779.052246,319.211639 
	C802.141846,320.105133 825.172791,322.534210 847.315247,329.980072 
	C865.895325,336.227966 882.360840,345.867065 895.254822,360.838531 
	C905.476624,372.707062 912.662415,386.384064 914.795715,401.944031 
	C916.427368,413.844849 917.709290,426.098358 916.717834,437.992523 
	C914.440247,465.315735 902.899902,488.364441 880.943665,505.583313 
	C880.025024,506.303741 879.086426,506.998718 877.682373,508.066620 
	C892.116150,514.415466 904.911682,521.855042 915.184265,532.787415 
	C928.921631,547.407043 937.069336,564.972168 939.874451,584.746826 
	C941.306213,594.840698 942.147034,605.158020 941.837524,615.331238 
	C941.106628,639.351501 935.331848,662.058716 920.640869,681.663025 
	C908.580688,697.756531 892.295044,708.389099 873.916077,715.901245 
	C857.302307,722.691650 839.866028,726.208252 822.052002,728.062012 
	C818.239624,728.458679 814.489807,729.455688 810.855591,730.588013 
	C780.312439,731.000000 749.624878,731.000000 718.468628,731.000000 
M760.000000,607.500000 
	C760.000000,621.588501 760.000000,635.677002 760.000000,649.599365 
	C766.033691,650.110107 771.305176,651.047180 776.543640,650.889343 
	C785.260864,650.626709 794.049866,650.240662 802.640808,648.861389 
	C816.688232,646.606018 829.006897,640.787109 837.111816,628.336243 
	C843.712830,618.195557 844.183350,606.631042 842.724915,595.357300 
	C840.956360,581.686279 834.414246,570.307190 820.560730,565.379517 
	C812.626892,562.557495 804.332214,559.919006 796.023804,559.180420 
	C784.244934,558.133301 772.303589,558.914734 760.000000,558.914734 
	C760.000000,574.574646 760.000000,590.537292 760.000000,607.500000 
M822.125977,448.601685 
	C822.667786,446.224701 823.443298,443.873810 823.712158,441.466370 
	C825.141663,428.668396 821.706421,414.535980 809.504395,405.778717 
	C794.439819,394.966980 777.351318,397.118530 760.357056,397.113190 
	C760.357056,424.265778 760.357056,450.970245 760.357056,478.852448 
	C771.612854,477.872681 782.578552,477.767944 793.194519,475.787994 
	C807.839417,473.056610 818.831848,465.235809 822.125977,448.601685 
z"/>
<path fill="#DA2B27" opacity="1.000000" stroke="none" 
	d="
M0.999999,324.468658 
	C7.293761,323.006104 13.556138,321.657196 19.888275,321.097351 
	C30.735912,320.138275 41.656532,318.829407 52.492935,319.206573 
	C67.100067,319.714966 81.661728,321.630219 96.223137,323.133270 
	C97.225899,323.236755 98.421959,324.789948 98.878906,325.929352 
	C99.340286,327.079803 98.999062,328.554596 98.999100,329.887299 
	C99.000168,375.701691 99.000000,421.516083 99.000008,467.330475 
	C99.000008,469.309814 99.000008,471.289185 99.000008,473.633301 
	C131.006866,473.633301 162.707870,473.633301 194.999985,473.633301 
	C194.999985,471.614929 194.999985,469.671967 194.999985,467.728973 
	C194.999985,422.247772 194.999924,376.766571 195.000061,331.285370 
	C195.000092,324.178131 194.957581,323.809387 201.871307,323.005402 
	C215.419403,321.429901 229.026993,319.207886 242.597687,319.289703 
	C258.182343,319.383728 273.755859,321.660431 289.328339,323.054382 
	C291.683716,323.265198 293.373962,324.327454 293.024414,327.188477 
	C292.863983,328.501556 292.999847,329.850677 292.999847,331.183472 
	C293.000000,459.963562 293.000031,588.743652 293.000000,717.523743 
	C293.000000,727.010559 292.989136,726.919312 283.531891,728.038025 
	C279.558746,728.508057 275.642029,729.455322 271.849823,730.592773 
	C253.645767,731.000000 235.291550,731.000000 216.618820,730.592773 
	C212.357010,729.455261 208.439316,728.508423 204.465240,728.037964 
	C195.010849,726.918762 195.000031,727.009827 195.000031,717.517090 
	C194.999985,667.360596 194.999969,617.204102 194.999969,567.047607 
	C194.999969,565.125732 194.999969,563.203857 194.999969,561.276489 
	C162.662659,561.276489 131.074753,561.276489 99.000015,561.276489 
	C99.000015,563.502686 99.000023,565.459167 99.000023,567.415710 
	C99.000008,618.072083 99.000061,668.728516 98.999725,719.384888 
	C98.999718,720.717957 99.434273,722.280640 98.886108,723.328064 
	C98.138649,724.756104 96.798462,726.582031 95.436066,726.854248 
	C90.304047,727.879456 85.049896,728.279602 79.869888,729.094421 
	C79.164146,729.205383 78.619331,730.339600 78.000000,731.000000 
	C59.645771,731.000000 41.291542,731.000000 22.618809,730.592773 
	C15.200202,729.123718 8.100100,728.061890 0.999999,727.000000 
	C1.000000,592.979126 1.000000,458.958221 0.999999,324.468658 
z"/>
<path fill="#DA2B27" opacity="1.000000" stroke="none" 
	d="
M445.468658,731.000000 
	C444.299377,730.337708 443.659973,729.180420 442.889191,729.085083 
	C419.597443,726.204041 397.982208,718.895386 378.883087,704.955627 
	C367.540955,696.677429 358.640869,686.138184 351.610718,674.084534 
	C339.537842,653.384827 333.986481,630.682556 330.858337,607.105347 
	C328.476807,589.155334 327.946564,571.203125 327.966217,553.156982 
	C328.047028,479.003326 328.000000,404.849487 328.000000,330.695709 
	C328.000000,328.711884 328.000000,326.728088 328.000000,324.438110 
	C360.307129,318.852905 392.347046,318.729675 425.000000,324.434021 
	C425.000000,326.269135 425.000000,328.222198 425.000000,330.175262 
	C425.000000,404.162415 424.666901,478.152100 425.231018,552.134949 
	C425.374512,570.952209 425.828461,590.024719 431.014282,608.447998 
	C433.835205,618.469604 437.749756,627.809692 446.143890,634.754089 
	C452.106873,639.687134 459.159882,641.923645 466.388550,642.773926 
	C478.108429,644.152527 489.890564,644.174133 501.344055,640.067627 
	C512.178833,636.183044 519.035950,628.642639 523.049377,618.128845 
	C527.600708,606.206055 529.678772,593.833069 530.015259,581.114319 
	C530.286987,570.842102 530.905579,560.574036 530.962280,550.301880 
	C531.366943,477.042145 531.667053,403.781891 531.998901,330.521790 
	C532.007812,328.548981 532.000000,326.576141 532.000000,324.679016 
	C561.471924,319.296112 592.475403,318.181000 629.000000,324.551392 
	C629.000000,326.257629 629.000000,328.054077 629.000000,329.850494 
	C629.000000,411.669617 629.678406,493.497131 628.667969,575.303772 
	C628.260620,608.285278 623.401733,641.059265 607.031372,670.793091 
	C597.061096,688.902161 583.291443,703.231934 564.922058,713.050049 
	C548.689575,721.726196 531.500610,727.135193 513.210510,729.114990 
	C512.668640,729.173584 512.190735,729.823547 511.841522,730.598877 
	C489.979095,731.000000 467.958221,731.000000 445.468658,731.000000 
z"/>
<path fill="#DA2B27" opacity="1.000000" stroke="none" 
	d="
M326.531342,0.999998 
	C327.607788,1.660232 328.150909,2.820459 328.832642,2.908577 
	C355.197571,6.316409 377.276123,18.186893 394.974579,37.685516 
	C408.266846,52.329842 416.532074,69.916992 422.068695,88.919128 
	C429.650269,114.939728 431.227966,141.576675 429.787384,168.314072 
	C428.587646,190.582352 424.427521,212.448593 415.061676,233.067917 
	C408.156769,248.269440 399.060059,261.827057 386.546356,272.843994 
	C372.252441,285.428223 355.576294,293.495636 336.807953,296.947083 
	C329.454773,298.299286 322.007355,299.138702 314.000000,300.299042 
	C314.000000,292.297180 314.000000,285.003662 314.000000,277.710144 
	C314.000000,268.211243 314.134857,258.709991 313.968414,249.213974 
	C313.718475,234.953979 319.967926,224.185593 330.900787,215.467148 
	C341.420319,207.078262 346.742065,195.566666 348.980469,182.536041 
	C351.448181,168.170303 349.705566,153.958374 347.058319,139.813248 
	C344.082062,123.910027 341.089294,108.009300 337.966553,92.134476 
	C337.040619,87.427422 335.651520,82.811493 333.566833,78.156273 
	C333.382294,78.832733 333.050629,79.505783 333.034821,80.186157 
	C332.669159,95.956520 332.381073,111.728752 331.984192,127.498268 
	C331.733978,137.438583 331.454651,147.382401 330.868713,157.305771 
	C330.775146,158.890579 328.998718,160.376038 328.000244,161.907410 
	C326.662567,160.709030 324.549103,159.729614 324.137177,158.270004 
	C323.035889,154.367752 322.456146,150.280853 322.040070,146.229218 
	C320.292755,129.215347 318.648621,112.190590 317.039246,95.162956 
	C316.537964,89.859062 316.265259,84.533562 315.887878,79.217957 
	C315.482574,79.189919 315.077301,79.161888 314.671997,79.133850 
	C314.453674,79.784142 314.061432,80.429482 314.042755,81.085464 
	C313.669342,94.189110 313.604889,107.307808 312.923981,120.394646 
	C312.265137,133.057831 311.090454,145.699600 309.809784,158.317017 
	C309.674194,159.652664 307.295776,161.717300 305.971710,161.706726 
	C304.646790,161.696136 302.368103,159.634613 302.185333,158.250519 
	C301.173889,150.591171 300.429291,142.876251 300.050018,135.157928 
	C299.204742,117.956078 298.632751,100.740822 297.926849,83.531952 
	C297.909668,83.113121 297.628265,82.705124 297.008026,81.085495 
	C296.099945,83.370552 295.184357,84.710503 295.070801,86.115273 
	C294.286713,95.815491 293.918671,105.554390 292.940430,115.232697 
	C291.505371,129.430908 289.777130,143.603088 287.858337,157.743576 
	C287.649902,159.279739 285.473022,161.534821 284.012634,161.698120 
	C281.427521,161.987167 280.985229,159.643097 280.949707,157.213470 
	C280.714417,141.108078 280.435303,125.001816 279.962952,108.901932 
	C279.654205,98.378876 278.996277,87.866058 277.653107,77.127312 
	C276.454559,81.495193 275.000916,85.811333 274.102692,90.240128 
	C270.659821,107.215363 266.767853,124.135460 264.276154,141.255524 
	C262.498505,153.469269 261.268829,166.097397 262.363525,178.310364 
	C263.750854,193.788223 270.056274,207.436600 283.399323,217.404572 
	C291.682831,223.592804 297.370239,232.817871 297.786255,243.388626 
	C298.518829,262.002441 297.991150,280.665833 297.991150,299.833374 
	C293.638031,299.538239 289.609528,299.440094 285.625793,298.965820 
	C264.242035,296.419983 244.451935,289.505829 227.559357,275.919403 
	C206.016968,258.593170 193.634506,235.456299 187.024292,208.988602 
	C183.639862,195.437073 180.945282,181.781036 180.935516,167.692947 
	C180.929764,159.421005 179.713318,151.119644 180.110916,142.883133 
	C181.561478,112.833755 186.382355,83.502243 201.613541,56.901859 
	C214.547958,34.312622 233.016647,17.879759 257.670502,9.118445 
	C265.756470,6.244909 274.405029,4.958622 282.783539,2.894530 
	C283.350067,2.754950 283.808441,2.176331 284.158569,1.400951 
	C298.020905,1.000000 312.041779,1.000000 326.531342,0.999998 
z"/>
<path fill="#DA2B27" opacity="1.000000" stroke="none" 
	d="
M818.531372,1.000003 
	C820.114380,1.666365 821.169739,2.776781 822.351807,2.933836 
	C848.732056,6.438981 873.425720,14.431783 894.535034,31.152441 
	C916.644470,48.665329 929.784485,72.009056 935.846985,99.224373 
	C938.472290,111.009438 939.674255,123.152351 940.892883,135.196457 
	C941.791138,144.075012 942.336121,153.091843 941.871887,161.986145 
	C940.593933,186.472794 937.247375,210.635086 925.984741,232.890717 
	C913.857605,256.854706 895.106445,273.653961 870.465515,284.357910 
	C854.397034,291.338043 837.659912,295.798065 820.458069,297.723267 
	C804.543823,299.504333 788.366577,300.366058 772.381470,299.726227 
	C751.727600,298.899475 731.149536,296.178589 710.298096,294.251099 
	C710.298096,197.945312 710.298096,102.241158 710.298096,6.098719 
	C721.869385,5.056810 733.305542,4.052054 744.733521,2.961187 
	C745.937500,2.846264 747.093079,2.224453 748.135559,1.418903 
	C771.354248,1.000000 794.708435,1.000000 818.531372,1.000003 
M822.510071,68.981094 
	C809.159058,64.162186 795.349609,64.761963 781.283813,65.198502 
	C781.283813,122.184937 781.283813,178.855698 781.283813,236.830063 
	C793.111938,235.862289 804.652161,235.530243 815.993835,233.854630 
	C835.757996,230.934723 849.880737,219.684113 858.514526,201.857040 
	C865.417969,187.602798 867.703613,172.090027 867.788574,156.500229 
	C867.852905,144.710220 867.083435,132.690750 864.765076,121.159386 
	C859.910767,97.013908 848.412292,77.423622 822.510071,68.981094 
z"/>
<path fill="#DA2B27" opacity="1.000000" stroke="none" 
	d="
M586.531372,1.000007 
	C587.614075,1.660296 588.178833,2.841643 588.849365,2.905119 
	C608.807556,4.794390 626.547485,12.429047 642.430603,24.267494 
	C654.021606,32.906815 662.878723,44.050850 670.329468,56.521450 
	C680.070679,72.825714 685.262085,90.673615 688.753662,108.979630 
	C692.580566,129.044189 693.052795,149.528915 691.800598,169.853165 
	C690.499390,190.973145 686.524902,211.749557 677.992432,231.339066 
	C667.720642,254.921646 652.337891,274.006927 629.278564,286.360077 
	C615.787537,293.587402 601.465332,297.711578 586.269653,299.036835 
	C585.152710,299.134216 583.849243,300.144623 583.018066,299.800201 
	C581.528076,299.182800 580.313232,297.879150 579.034546,296.801544 
	C578.868408,296.661560 579.009460,296.161530 579.001831,295.828400 
	C578.668335,281.226074 578.389587,266.622162 577.973083,252.022186 
	C577.803589,246.079697 577.198914,240.147751 577.110474,234.206284 
	C577.091553,232.936722 578.138306,230.967484 579.223206,230.466675 
	C599.382141,221.160889 607.658936,203.170013 612.760620,183.433197 
	C615.324707,173.513657 616.954285,162.988785 616.729065,152.787949 
	C616.265015,131.763840 612.025513,111.455765 599.401001,93.797958 
	C591.702087,83.029549 581.893921,75.238617 568.358948,74.334587 
	C561.132568,73.851936 554.267761,76.888718 548.310852,81.225174 
	C533.663574,91.887871 526.654541,107.360840 522.509644,124.186134 
	C515.773499,151.530304 517.554871,178.354233 530.064270,203.902252 
	C535.588806,215.185059 543.456543,224.548111 555.166565,230.196457 
	C556.562622,230.869843 557.886475,233.378082 557.873291,235.024887 
	C557.752869,250.128784 557.432007,265.233582 556.945984,280.330902 
	C556.739563,286.742828 556.001892,293.137604 555.483154,299.831299 
	C541.770386,298.876556 528.336670,296.457794 515.603333,291.132446 
	C502.142029,285.502686 489.839661,277.927582 479.759308,267.215088 
	C465.200104,251.742950 455.631104,233.455933 450.020111,213.057068 
	C445.919464,198.148972 443.877045,182.982834 442.792084,167.504303 
	C440.658234,137.061234 443.814880,107.448830 453.762360,78.631271 
	C463.739197,49.728764 482.077362,27.651646 509.264923,13.507840 
	C520.299011,7.767545 532.219666,4.030743 544.792786,2.945622 
	C545.660706,2.870714 546.476929,2.197098 547.158569,1.400954 
	C560.020874,1.000000 573.041809,1.000000 586.531372,1.000007 
z"/>
<path fill="#DA2B27" opacity="1.000000" stroke="none" 
	d="
M170.531342,1.000000 
	C171.999893,10.137836 173.824783,19.278570 173.792694,28.412779 
	C173.751755,40.063122 172.210205,51.708187 171.275513,63.875519 
	C138.720367,63.875519 106.660469,63.875519 74.302765,63.875519 
	C74.302765,80.020950 74.302765,95.609802 74.302765,111.999908 
	C75.980141,111.999908 77.727623,111.999908 79.475113,111.999916 
	C101.134079,111.999962 122.794029,112.108192 144.451202,111.911278 
	C148.931625,111.870552 150.901657,112.814140 151.165161,117.794640 
	C151.553436,125.133553 153.927216,132.438446 153.762619,139.719574 
	C153.490265,151.767181 151.868851,163.784286 150.793976,176.064362 
	C124.456284,176.064362 99.520958,176.064362 74.178192,176.064362 
	C74.178192,216.030945 74.178192,255.614655 74.178192,295.876251 
	C67.676605,296.946869 61.469303,298.078125 55.228371,298.975494 
	C39.037586,301.303619 23.023497,299.053192 6.993893,297.030823 
	C3.498463,296.589813 2.942456,294.714050 2.950179,291.647217 
	C3.031324,259.424469 3.000103,227.201401 3.000012,194.978439 
	C2.999950,173.085129 2.999998,151.191818 2.999999,129.298508 
	C3.000000,108.238235 3.000001,87.177963 3.000000,66.117691 
	C2.999999,44.724232 3.000000,23.330774 3.000000,1.468657 
	C58.687561,1.000000 114.375122,1.000000 170.531342,1.000000 
z"/>
<path fill="#000000" opacity="1.000000" stroke="none" 
	d="
M78.468658,731.000000 
	C78.619331,730.339600 79.164146,729.205383 79.869888,729.094421 
	C85.049896,728.279602 90.304047,727.879456 95.436066,726.854248 
	C96.798462,726.582031 98.138649,724.756104 98.886108,723.328064 
	C99.434273,722.280640 98.999718,720.717957 98.999725,719.384888 
	C99.000061,668.728516 99.000008,618.072083 99.000023,567.415710 
	C99.000023,565.459167 99.000015,563.502686 99.000015,561.276489 
	C131.074753,561.276489 162.662659,561.276489 194.999969,561.276489 
	C194.999969,563.203857 194.999969,565.125732 194.999969,567.047607 
	C194.999969,617.204102 194.999985,667.360596 195.000031,717.517090 
	C195.000031,727.009827 195.010849,726.918762 204.465240,728.037964 
	C208.439316,728.508423 212.357010,729.455261 216.150162,730.592773 
	C170.312439,731.000000 124.624878,731.000000 78.468658,731.000000 
z"/>
<path fill="#DA2B27" opacity="1.000000" stroke="none" 
	d="
M996.000000,30.531342 
	C994.518372,31.000000 993.036682,31.000000 990.863892,31.000000 
	C990.863892,25.576052 990.863892,20.421112 990.863892,15.266171 
	C990.460144,15.211363 990.056335,15.156554 989.652588,15.101746 
	C988.148804,19.278107 986.796509,23.519142 985.055786,27.594278 
	C984.478821,28.945015 982.662537,30.937504 981.835815,30.751947 
	C980.384277,30.426144 978.750977,28.877916 978.094421,27.432543 
	C976.291504,23.463793 974.955933,19.282734 972.420410,15.172809 
	C972.420410,20.239599 972.420410,25.306389 972.420410,30.663502 
	C970.262817,30.663502 968.889526,30.663502 967.554016,30.663502 
	C967.368164,30.258114 967.123047,29.967422 967.114807,29.670132 
	C966.889282,21.572613 966.634766,13.475048 966.538635,5.375670 
	C966.523804,4.124141 967.254456,2.863759 967.320190,1.303734 
	C969.041687,1.000000 971.083313,1.000000 973.254761,1.302998 
	C976.061707,8.469461 978.738892,15.332927 981.416016,22.196392 
	C981.864624,22.098797 982.313171,22.001202 982.761780,21.903608 
	C984.841187,14.935737 986.920593,7.967866 989.000000,0.999998 
	C991.305359,1.000000 993.610779,1.000000 996.000000,1.000000 
	C996.000000,10.687435 996.000000,20.375061 996.000000,30.531342 
z"/>
<path fill="#DA2B27" opacity="1.000000" stroke="none" 
	d="
M964.531372,1.000000 
	C965.000000,2.435006 965.000000,3.870011 965.000000,5.850758 
	C961.737976,5.850758 958.676758,5.850758 955.073547,5.850758 
	C955.073547,14.419314 955.073547,22.464300 955.073547,30.734375 
	C953.261963,30.734375 951.993774,30.734375 950.186035,30.734375 
	C950.186035,22.767864 950.186035,14.722510 950.186035,6.268024 
	C946.756470,6.268024 943.840820,6.268024 940.164612,6.268024 
	C940.260437,4.479394 940.332214,3.139854 940.201965,1.400157 
	C948.020935,1.000000 956.041809,1.000000 964.531372,1.000000 
z"/>
<path fill="#000000" opacity="1.000000" stroke="none" 
	d="
M988.533875,0.999998 
	C986.920593,7.967866 984.841187,14.935737 982.761780,21.903608 
	C982.313171,22.001202 981.864624,22.098797 981.416016,22.196392 
	C978.738892,15.332927 976.061707,8.469461 973.692261,1.302998 
	C978.689270,1.000000 983.378479,1.000000 988.533875,0.999998 
z"/>
<path fill="#000000" opacity="1.000000" stroke="none" 
	d="
M0.999999,727.500000 
	C8.100100,728.061890 15.200202,729.123718 22.150152,730.592773 
	C15.833333,731.000000 9.647044,730.708130 3.508122,731.120850 
	C0.348178,731.333252 1.048076,729.654358 0.999999,727.500000 
z"/>
<path fill="#000000" opacity="1.000000" stroke="none" 
	d="
M760.000000,607.000000 
	C760.000000,590.537292 760.000000,574.574646 760.000000,558.914734 
	C772.303589,558.914734 784.244934,558.133301 796.023804,559.180420 
	C804.332214,559.919006 812.626892,562.557495 820.560730,565.379517 
	C834.414246,570.307190 840.956360,581.686279 842.724915,595.357300 
	C844.183350,606.631042 843.712830,618.195557 837.111816,628.336243 
	C829.006897,640.787109 816.688232,646.606018 802.640808,648.861389 
	C794.049866,650.240662 785.260864,650.626709 776.543640,650.889343 
	C771.305176,651.047180 766.033691,650.110107 760.000000,649.599365 
	C760.000000,635.677002 760.000000,621.588501 760.000000,607.000000 
z"/>
<path fill="#000000" opacity="1.000000" stroke="none" 
	d="
M822.074463,449.020538 
	C818.831848,465.235809 807.839417,473.056610 793.194519,475.787994 
	C782.578552,477.767944 771.612854,477.872681 760.357056,478.852448 
	C760.357056,450.970245 760.357056,424.265778 760.357056,397.113190 
	C777.351318,397.118530 794.439819,394.966980 809.504395,405.778717 
	C821.706421,414.535980 825.141663,428.668396 823.712158,441.466370 
	C823.443298,443.873810 822.667786,446.224701 822.074463,449.020538 
z"/>
<path fill="#000000" opacity="1.000000" stroke="none" 
	d="
M822.917358,68.996643 
	C848.412292,77.423622 859.910767,97.013908 864.765076,121.159386 
	C867.083435,132.690750 867.852905,144.710220 867.788574,156.500229 
	C867.703613,172.090027 865.417969,187.602798 858.514526,201.857040 
	C849.880737,219.684113 835.757996,230.934723 815.993835,233.854630 
	C804.652161,235.530243 793.111938,235.862289 781.283813,236.830063 
	C781.283813,178.855698 781.283813,122.184937 781.283813,65.198502 
	C795.349609,64.761963 809.159058,64.162186 822.917358,68.996643 
z"/>
</svg>